<svg xmlns="http://www.w3.org/2000/svg" viewBox="0 0 48 55.47"><defs><style>.cls-1{fill:#ee63d2;}.cls-2{fill:#0ab1ff;}.cls-3{fill:#4320aa;}</style></defs><title>Asset 1patch-logo</title><g id="Layer_2" data-name="Layer 2"><g id="Layer_1-2" data-name="Layer 1"><path class="cls-1" d="M27.58,0a20.33,20.33,0,0,0-14,5.58,6.86,6.86,0,0,1,.13,1.28V35.37A20.41,20.41,0,1,0,27.58,0Z"/><path class="cls-2" d="M7.16,20.42A20.34,20.34,0,0,1,13.59,5.58,6.85,6.85,0,0,0,0,6.86V48.61a6.86,6.86,0,1,0,13.71,0V35.37A20.34,20.34,0,0,1,7.16,20.42Z"/><path class="cls-3" d="M13.59,5.58a20.35,20.35,0,0,0,.13,29.79V6.86A6.86,6.86,0,0,0,13.59,5.58Z"/></g></g></svg>